<?xml version="1.0" encoding="utf-8"?>
<!-- Generator: Adobe Illustrator 27.5.0, SVG Export Plug-In . SVG Version: 6.00 Build 0)  -->
<svg version="1.1" id="Camada_1" xmlns="http://www.w3.org/2000/svg" xmlns:xlink="http://www.w3.org/1999/xlink" x="0px" y="0px"
	 viewBox="0 0 1000 1000" style="enable-background:new 0 0 1000 1000;" xml:space="preserve">
<style type="text/css">
	.st0{fill:#92C35C;}
</style>
<g>
	<path class="st0" d="M903.8,181.07l-10.73-66.27c0,0-25.27,62.55-25.27,62.55C771.21,425.4,546.94,381.23,348.7,485.36
		c-99.97,51.13-171.16,135.8-221.57,233.08c-0.27-4.98-0.51-9.88-0.66-14.55c-1.13-27.92,0.07-56.39,2.14-84.12
		c1.62-9.84,3.46-31.64,5.98-41.19c41.33-236.06,267.59-238.2,391.09-410.27c16.27-22.25,30.01-46.22,41.51-71.13
		c45.14,86.05,51.11,189.67,31.36,284.3c38.37-107.39,43.98-236.65-18.64-336.39c-0.02-0.02-20.08-32.32-20.1-32.34
		c-16.06,46.18-35.03,94.35-64.47,133.38C366.15,319.37,147.29,311.59,97.65,571.64c-7.35,38.39-9.56,79.8-9.1,118.69
		c0.58,53.8,9.26,119.31,14.13,173.36l29.1-65.75c7.73-16.9,17.29-40.77,26.22-57.05c27.52-55.24,63.76-108.07,108.21-150.67
		c192.07-185.33,471.67-96.95,609.24-341.25c13.41,103.67,19.09,209.62-8.4,310.86C775.15,888.2,352.89,738.7,172.83,928.79
		c161.64-143.76,478.25-45.53,650.7-218.82C954.09,576.6,933.23,350.31,903.8,181.07z"/>
	<path class="st0" d="M253.96,465.23c-36.73,38.43-62.53,87.42-73.38,139.08c49.94-102.08,120.16-150.77,217.24-204.61
		c102.54-57.27,177.07-122.13,165.27-250.03C536.09,347.61,370.45,342.88,253.96,465.23z"/>
	<path class="st0" d="M611.16,538.17c28.29-17.6,56.32-35.75,83.2-56.18c-63.79,21.48-123.82,50.61-182.35,83.45
		c-73.23,35.33-88.16,68.13-101.11,97.06c-8.33,18.6-24.94,26.46-35.76,29.72c-3.42,0.72-6.83,1.46-10.24,2.22c0,0-0.02,0-0.02,0
		l0,0c-18.98,4.21-37.77,9.02-56.13,15.19C189.68,755.03,105.07,868.22,70,987.48c62.02-101.61,138.83-201.39,249.93-249.41
		c16.57-7.3,41.31-14.32,60.61-20.04c0,0,0,0,0,0c49.22-11.61,72.27,13.97,122.22,12.99c49.95-0.98,106.72-37.45,106.72-37.45
		s0.01-0.01,0.01-0.01c53.4-29.3,99.62-71.03,137.74-118.3c-40.57,25.55-78.69,52.62-119.21,77.21
		c-10.01,6.08-20.06,11.91-30.31,17.27c-8.39,4.1-15.13,2.4-16.31,0.49c-3.1-5.01,1.21-9.33,4.97-11.93
		c65.05-44.68,110.65-70.64,143.69-112.79c-53,26.03-101.54,57.71-150.88,88.69c-10.09,6.02-16.71,5.86-20.54-0.18
		c-2.93-4.62,3.25-11.38,10.41-14.97c0.03-0.01,0.06-0.05,0.09-0.07c59.01-36.84,107.35-64.96,139.67-107.07
		c-53.31,25.76-106.14,58.89-158.47,90.25c-9.61,4.34-18.63-0.3-20.37-3.48c-2.91-5.31,1.26-12,4.7-15.31
		C560.38,568.64,586.09,553.76,611.16,538.17z"/>
</g>
</svg>
